<svg width="140" height="32" viewBox="0 0 140 32" fill="none" xmlns="http://www.w3.org/2000/svg">
<g clip-path="url(#clip0_145_421)">
<path d="M16.9824 20.2476L14.4837 20.2898C14.3524 20.2921 14.2479 20.395 14.2458 20.524C14.2103 22.6692 12.7011 24.3142 10.657 24.4361C10.525 24.4437 10.4234 24.548 10.4258 24.6738L10.4694 27.0935C10.4704 27.1577 10.4991 27.2193 10.5473 27.2632C10.5947 27.3064 10.6535 27.3284 10.7173 27.3273C14.2829 27.1615 17.2022 24.0923 17.2321 20.4851C17.2326 20.4218 17.207 20.3618 17.1598 20.3164C17.1128 20.2718 17.0481 20.2465 16.9824 20.2476Z" fill="white"/>
<path d="M14.8597 28.0313L14.8592 28.0315C13.6341 28.7133 12.2776 29.0612 10.9045 29.0612C10.1946 29.0612 9.48012 28.9683 8.77668 28.7804C6.71271 28.2289 4.99242 26.926 3.93271 25.112C2.53719 22.7229 2.53702 19.7551 3.93236 17.3664L10.6968 5.87357C10.7355 5.80782 10.8048 5.7687 10.8823 5.7687H10.8825C10.9588 5.7687 11.03 5.80901 11.0679 5.87392L17.8107 17.3663C20.004 21.0992 18.6802 25.8837 14.8597 28.0313ZM11.1348 0.118387C11.0915 0.0441384 11.0134 0 10.9262 0C10.8386 0 10.7604 0.0444805 10.7168 0.118558L1.43124 15.9858C-0.0122465 18.4765 -0.378666 21.369 0.39943 24.1298C1.1777 26.8907 3.0077 29.1897 5.55202 30.6033C7.18737 31.5117 9.04585 31.9948 10.9262 32C13.8512 31.9971 16.6002 30.8789 18.6668 28.8516C20.7332 26.8242 21.8695 24.1303 21.8667 21.2665C21.8648 19.4045 21.3645 17.5664 20.4197 15.9504L11.1348 0.118387Z" fill="white"/>
<path d="M32.2001 15.0474C32.171 15.1281 32.0942 15.1824 32.0071 15.1824H31.9165C31.8038 15.1824 31.7123 15.092 31.7123 14.9803V11.3438C31.7123 11.1345 31.5397 10.9642 31.328 10.9642H25.7866C25.5749 10.9642 25.4023 11.1345 25.4023 11.3438V30.912C25.4023 31.1216 25.5749 31.2922 25.7866 31.2922H31.4641C31.6758 31.2922 31.8483 31.1216 31.8483 30.912V23.8656C31.8483 22.0804 32.0756 20.6571 32.5237 19.6344C32.9798 18.5909 33.7009 17.8315 34.6661 17.378C35.6129 16.933 36.9031 16.7075 38.4985 16.7075C38.7122 16.7075 38.8842 16.5369 38.8842 16.3277V10.3364C35.5076 10.3563 33.3206 11.8982 32.2001 15.0474Z" fill="white"/>
<path d="M47.249 11.0444H41.5644C41.3522 11.0444 41.1797 11.2144 41.1797 11.4225V30.9136C41.1797 31.1223 41.3522 31.2922 41.5644 31.2922H47.249C47.4613 31.2922 47.6338 31.1223 47.6338 30.9136V11.4225C47.6338 11.2144 47.4613 11.0444 47.249 11.0444Z" fill="white"/>
<path d="M44.3362 0C43.1412 0 42.1624 0.376635 41.4277 1.11899C40.693 1.86134 40.3203 2.83525 40.3203 4.01284C40.3203 5.22089 40.6928 6.20974 41.4277 6.95152C42.1618 7.69416 43.1404 8.07079 44.3362 8.07079C45.5027 8.07079 46.4742 7.69358 47.2234 6.95008C47.9725 6.20715 48.3521 5.21917 48.3521 4.01284C48.3521 2.83668 47.9725 1.86364 47.2236 1.12042C46.4734 0.376922 45.5019 0 44.3362 0Z" fill="white"/>
<path d="M69.9487 12.4251C68.5771 11.0392 66.6929 10.3364 64.3483 10.3364C62.9133 10.3364 61.6076 10.6593 60.467 11.2956C59.3281 11.9317 58.3944 12.856 57.6924 14.0431C57.6557 14.1049 57.5889 14.1426 57.5167 14.1426H57.4258C57.3137 14.1426 57.2223 14.0524 57.2223 13.9412V11.387C57.2223 11.1782 57.0506 11.0082 56.8396 11.0082H51.3166C51.1056 11.0082 50.9336 11.1782 50.9336 11.387V30.9128C50.9336 31.1219 51.1056 31.2922 51.3166 31.2922H56.9749C57.1865 31.2922 57.3582 31.1219 57.3582 30.9128V21.1057C57.3582 19.3311 57.7406 18.0056 58.4953 17.1653C59.2561 16.3184 60.2967 15.8886 61.5884 15.8886C62.9417 15.8886 63.9676 16.2812 64.6387 17.0563C65.3017 17.822 65.638 19.0034 65.638 20.568V30.9128C65.638 31.1219 65.8097 31.2922 66.0209 31.2922H71.634C71.845 31.2922 72.017 31.1219 72.017 30.9128V18.6873C72.017 15.9192 71.321 13.8127 69.9487 12.4251Z" fill="white"/>
<path d="M87.5951 19.2386L83.9802 17.9109C83.3823 17.6649 82.9712 17.4633 82.7161 17.2911C82.4175 17.0911 82.2663 16.8048 82.2663 16.4404C82.2663 16.0792 82.4243 15.7911 82.723 15.6074C83.0004 15.438 83.4639 15.3559 84.1419 15.3559C85.66 15.3559 87.5757 15.7917 89.835 16.6511C89.9355 16.6889 90.0446 16.6861 90.1416 16.6421C90.2358 16.5995 90.3068 16.5226 90.3403 16.4261L91.8403 12.1569C91.8752 12.059 91.8672 11.9535 91.8183 11.8604C91.7707 11.769 91.6894 11.7025 91.5904 11.6733C89.2074 10.9741 86.8837 10.6196 84.6842 10.6196C81.7916 10.6196 79.5838 11.1865 78.1214 12.3038C76.6738 13.4091 75.9399 15.0095 75.9399 17.0603C75.9399 18.5125 76.3511 19.7513 77.1611 20.7425C77.9765 21.7429 79.24 22.5709 80.9163 23.2044L84.578 24.6216C84.7054 24.6836 84.8778 24.7462 85.1059 24.8154C85.3725 24.8976 85.6084 25.0219 85.8083 25.1845C86.037 25.3719 86.1527 25.6467 86.1527 26.0021C86.1527 26.7509 85.4455 27.131 84.0515 27.131C81.976 27.131 79.6362 26.4368 77.0975 25.0681C76.9996 25.0157 76.8885 25.0047 76.7843 25.0387C76.6838 25.0712 76.6033 25.1413 76.559 25.2359L74.4889 29.6473C74.401 29.8341 74.4806 30.0554 74.6664 30.1418C75.9694 30.7442 77.3626 31.1997 78.8062 31.495C80.4428 31.8305 82.0255 32.0001 83.5092 32.0001C86.3448 32.0001 88.5861 31.4465 90.1702 30.3544C91.7324 29.2774 92.5246 27.5752 92.5246 25.2939C92.5246 23.6995 92.1154 22.4332 91.3092 21.5295C90.4912 20.6143 89.2417 19.8436 87.5951 19.2386Z" fill="white"/>
<path d="M108.56 19.0761C108.522 19.1149 108.47 19.1365 108.415 19.1365H100.168C100.111 19.1365 100.056 19.1124 100.018 19.0699C99.9794 19.0269 99.9615 18.9704 99.968 18.9139C100.123 17.5953 100.607 16.5959 101.407 15.9435C102.203 15.2954 103.233 14.9666 104.471 14.9666C105.653 14.9666 106.642 15.3199 107.409 16.0175C108.179 16.7175 108.586 17.6981 108.617 18.9316C108.619 18.9856 108.598 19.0379 108.56 19.0761ZM112.081 13.332C110.305 11.5322 107.82 10.6196 104.695 10.6196C102.618 10.6196 100.742 11.0519 99.1203 11.9046C97.5039 12.755 96.2271 14.0046 95.3252 15.6178C94.4198 17.2361 93.9609 19.1736 93.9609 21.3765C93.9609 23.4908 94.4343 25.3671 95.3678 26.9536C96.2995 28.5399 97.6371 29.79 99.343 30.6697C101.054 31.5524 103.066 32.0001 105.323 32.0001C108.172 32.0001 110.864 31.2941 113.323 29.9016C113.491 29.8057 113.556 29.5913 113.469 29.4134L111.515 25.4042C111.468 25.3089 111.387 25.2395 111.286 25.2083C111.186 25.178 111.081 25.1892 110.991 25.2404C110.332 25.6142 109.579 25.952 108.752 26.244C107.69 26.62 106.566 26.8106 105.412 26.8106C103.944 26.8106 102.708 26.4857 101.737 25.8455C100.752 25.1948 100.142 24.2103 99.9245 22.9172C99.9149 22.8596 99.9314 22.8003 99.9697 22.7556C100.008 22.7106 100.064 22.6848 100.124 22.6848H114.378C114.587 22.6848 114.757 22.5161 114.757 22.3093V21.3765C114.757 17.8401 113.857 15.1336 112.081 13.332Z" fill="white"/>
<path d="M131.622 24.8214C130.688 25.7394 129.475 26.2045 128.016 26.2045C126.587 26.2045 125.389 25.7394 124.455 24.8214C123.519 23.9032 123.045 22.6682 123.045 21.1505C123.045 19.6337 123.519 18.3989 124.455 17.4798C125.39 16.5616 126.588 16.0965 128.016 16.0965C129.473 16.0965 130.687 16.5616 131.622 17.4798C132.558 18.3989 133.032 19.6337 133.032 21.1505C133.032 22.6682 132.558 23.9032 131.622 24.8214ZM139.617 0.283203H133.981C133.774 0.283203 133.607 0.445161 133.6 0.651808L133.212 13.6093C133.209 13.7186 133.119 13.8057 133.01 13.8057H132.92C132.849 13.8057 132.784 13.7693 132.747 13.7092C131.354 11.4481 129.126 10.3013 126.126 10.3013C124.341 10.3013 122.694 10.7234 121.233 11.5554C119.775 12.3851 118.606 13.6273 117.758 15.2468C116.908 16.871 116.477 18.8575 116.477 21.1505C116.477 23.4438 116.908 25.4303 117.758 27.0544C118.606 28.6737 119.775 29.9159 121.233 30.7459C122.695 31.5779 124.341 32 126.126 32C129.126 32 131.354 30.8532 132.747 28.592C132.784 28.532 132.849 28.4955 132.92 28.4955H133.01C133.122 28.4955 133.212 28.5861 133.212 28.6979V30.9454C133.212 31.1552 133.383 31.326 133.593 31.326H139.227C139.434 31.326 139.605 31.1577 139.608 30.95L139.998 0.668032C140 0.565563 139.96 0.469356 139.888 0.396204C139.816 0.323622 139.72 0.283203 139.617 0.283203Z" fill="white"/>
</g>
<defs>
<clipPath id="clip0_145_421">
<rect width="140" height="32" fill="white"/>
</clipPath>
</defs>
</svg>
